PathFileType	4	(X/Y/Z)	C:\Users\°ÂÌØÂü\Desktop\20210112\bx_n_10_902-Unnamed.trc
DataRate	CameraRate	NumFrames	NumMarkers	Units	OrigDataRate	OrigDataStartFrame	OrigNumFrames
50.00	50.00	       5	0	mm	50.00	303	       484
Frame#	Time	
		

303	6.040	-138.80952	109.17003	1218.41980	-782.68127	204.07402	535.55359	-385.96152	254.47481	1073.58008	-791.58173	-15.69976	974.09814	-957.34985	82.51544	1091.72546				-865.54846	249.67166	621.91583	-847.28925	244.65804	560.14740	-863.94269	258.26724	480.84067	-518.08319	-72.61081	142.86707				-597.08838	25.88873	167.01875	-794.06000	230.57022	994.43842	-721.65875	158.50029	223.28755	-798.85211	183.56035	179.85349	-773.00317	231.41150	201.51138	-593.67688	219.05066	173.31859	-882.86108	295.76398	144.63332	-557.27075	253.56987	163.21962	-773.17218	11.86190	523.68231	-622.09930	306.29141	158.13409	-527.91797	303.85715	146.21513	-659.31476	299.11026	156.25647	-779.41785	-14.26640	800.03369	-791.44043	39.47991	171.90292	-853.59729	-50.13778	465.88058	-549.28381	-27.39469	163.34407	-762.66034	-21.99407	201.37462	-875.93073	-78.79627	141.25227				-862.07275	-72.40430	739.34406	-842.11298	-41.24097	603.69464	-837.07660	-38.50731	554.33075	-675.78711	176.19522	163.71600	-606.95807	-75.59969	157.30876	-648.21057	-67.91132	160.82300	-809.75714	141.54898	567.12445				-896.03918	279.78485	859.27515	-867.69501	276.59302	724.85919	-783.68109	207.29938	811.03918				-869.37482	-82.68993	854.21234	
304	6.060	-137.04071	108.39314	1203.65125	-782.48608	203.54858	536.00476	-383.33914	253.67957	1061.60681	-792.24097	-15.18701	972.44989	-956.88239	82.56718	1092.20862				-865.53723	249.79535	622.19379	-847.10364	244.62552	560.39539	-863.51843	258.12363	481.16760	-517.93561	-72.65104	142.80411				-596.79443	26.35877	166.82751	-794.87366	231.05455	993.84241	-721.56665	158.46553	223.37572	-798.80804	183.52795	180.32695	-772.86890	230.83336	202.07028	-593.71454	218.75108	172.94255	-882.80017	295.73404	144.65240	-557.20215	253.48051	163.15186	-773.47412	11.72499	523.66766	-622.13464	306.12576	158.20558	-527.97821	303.95071	146.25775	-658.82605	298.99149	156.89761	-780.43353	-14.12199	800.56396	-791.15112	39.67916	171.99773	-853.93768	-49.65569	465.87723	-548.90491	-27.38636	163.04050	-762.34998	-21.15403	201.29077	-875.87335	-78.57735	141.34627				-862.48340	-71.95086	739.11810	-842.82849	-40.85805	603.35260	-837.57404	-37.90659	554.35107	-675.84949	176.03053	164.32588	-606.95807	-75.59969	157.30876	-647.94177	-67.78829	161.07217	-810.05798	140.95093	567.84796				-897.22241	280.63754	859.72565	-868.28906	276.97067	725.09393	-784.59705	207.20148	811.21478				-870.18506	-82.59467	854.27917	
305	6.080	-135.23601	107.53786	1189.90125	-781.94281	203.24359	536.59943	-381.20752	252.48688	1049.37866	-792.38953	-14.69210	971.08099	-956.45087	82.01348	1092.48096				-865.14258	249.61658	622.51495	-846.30115	244.40034	560.80707	-862.78265	258.58994	481.90543	-518.07227	-72.69772	142.78549				-596.49390	26.59665	166.99428	-795.79492	231.22736	992.18842	-721.63080	158.80359	223.86142	-798.46796	183.87453	180.81653	-772.48120	231.23805	202.69966	-593.42480	218.54948	173.21249	-882.74152	295.81631	144.58163	-557.03638	253.33699	162.99300	-773.51563	11.88130	523.49622	-621.98999	306.23563	158.85216	-528.06000	303.77567	146.24625	-658.46588	298.51047	157.15666	-780.62708	-14.04847	800.42010	-791.05939	39.99495	172.30394	-854.41876	-48.81499	465.87021	-549.03729	-27.37232	162.91623	-762.22632	-20.86259	201.81169	-875.97095	-78.32076	141.07541				-863.00360	-71.55448	738.89288	-843.16016	-40.60972	603.59900	-838.10968	-37.33657	554.24231	-675.86017	175.81842	164.21136	-606.92029	-75.44913	157.13026	-647.90857	-67.62127	161.10706							-897.91394	281.48285	859.88245	-868.50885	277.50046	725.41077	-785.53528	207.23633	811.79321				-870.46954	-82.52412	854.40942	
306	6.100	-133.73352	106.64995	1175.93103	-781.48041	202.81635	536.99323				-793.28845	-14.48638	969.62384	-956.19586	82.16939	1092.53333	-810.43842	140.31093	568.68530	-864.32111	249.86234	622.70117				-861.81451	258.98685	482.22845	-518.07227	-72.69772	142.78549				-596.70337	26.71528	166.79846	-796.32281	231.49287	991.47369	-721.87885	158.68115	223.65134	-798.31116	184.35072	180.95955	-771.82056	231.72510	203.05429	-593.53882	217.96526	172.66051	-882.71936	295.93680	144.70370	-556.95721	253.11487	162.81783	-774.39667	12.38410	523.81982	-621.71948	306.06030	158.69286	-527.97253	303.83521	146.30310	-658.63440	297.95914	157.30672	-780.96808	-14.14739	800.55841	-791.11975	40.59787	172.78667	-854.72174	-48.07210	465.80038	-549.13440	-27.59558	163.19737	-762.16412	-20.65419	201.72644	-876.02631	-78.57125	140.90721				-864.10333	-71.42953	739.33801	-843.76923	-40.20570	603.60651	-838.68427	-37.09332	554.19061	-675.93323	175.97408	164.18520	-607.17670	-75.36249	157.23163	-647.86267	-67.52008	161.18309							-898.03754	281.79431	860.34552	-868.19043	277.89182	725.71735	-785.64270	207.39326	812.23956				-871.00787	-82.39141	854.39325	
307	6.120	-132.42009	105.89921	1162.54919	-781.86536	202.36424	536.74951	-377.29779	250.92734	1026.81628	-793.40625	-15.16484	968.16943	-954.94177	82.66947	1092.76965	-810.51770	140.41235	568.70276	-864.31641	250.01433	622.83752				-861.52734	259.16629	482.55002	-518.18121	-72.64272	142.68623				-596.72778	26.54424	166.75288	-797.44971	229.63698	988.55573	-722.09430	158.66002	224.03665	-798.41351	184.96149	181.11751	-771.84045	232.05853	202.81375	-593.29669	217.87279	172.78856	-882.62714	295.87161	144.54532	-556.94849	252.93028	162.73479	-774.83875	12.85472	523.72400	-621.68640	305.88425	158.39479	-528.02362	303.96970	146.39961	-658.42340	298.47717	158.00490	-782.31580	-13.93932	800.43604	-791.09088	40.78673	172.41524	-855.28119	-47.70019	465.40863	-549.23840	-27.68870	163.22771	-762.32153	-20.48120	201.53322	-876.13641	-78.48506	141.15695				-865.15576	-71.69999	738.87292	-844.90686	-40.05987	603.16943	-839.35437	-36.74057	553.74664	-676.21802	176.09372	163.85350	-607.16168	-75.43961	157.19946	-647.65198	-67.57993	161.40514							-897.66431	281.91547	860.28326	-867.41895	277.60239	725.92889	-785.54950	207.24677	812.32770				-872.20612	-82.79590	853.76801	
